<svg width="119" height="112" viewBox="0 0 119 112" fill="none" xmlns="http://www.w3.org/2000/svg">
<g clip-path="url(#clip0)">
<path d="M113.514 107.625H108.416V37.961C108.416 34.7185 105.613 32.0806 102.168 32.0806H90.7737C87.3285 32.0806 84.5257 34.7187 84.5257 37.961V107.625H71.5817V69.5242C71.5817 66.2817 68.7789 63.6438 65.3337 63.6438H53.9395C50.4943 63.6438 47.6915 66.2819 47.6915 69.5242V107.625H34.7475V87.8929C34.7475 84.6503 31.9444 82.0124 28.4995 82.0124H17.105C13.6598 82.0124 10.857 84.6506 10.857 87.8929V107.625H5.48438C4.20071 107.625 3.16016 108.604 3.16016 109.813C3.16016 111.021 4.20071 112 5.48438 112H113.514C114.797 112 115.838 111.021 115.838 109.813C115.838 108.604 114.797 107.625 113.514 107.625ZM30.0985 107.625H15.5052V87.8929C15.5052 87.0627 16.2227 86.3874 17.1048 86.3874H28.499C29.3811 86.3874 30.0985 87.0627 30.0985 87.8929V107.625ZM66.933 107.625H52.3397V69.5242C52.3397 68.6941 53.0572 68.0188 53.9392 68.0188H65.3335C66.2153 68.0188 66.933 68.6941 66.933 69.5242V107.625ZM103.767 107.625H89.1741V37.961C89.1741 37.1308 89.8916 36.4556 90.7737 36.4556H102.168C103.05 36.4556 103.767 37.1308 103.767 37.961V107.625Z" fill="#2A3946"/>
<path d="M108.411 2.30037C108.443 1.70341 108.22 1.09637 107.736 0.6405C107.252 0.184625 106.607 -0.0255938 105.972 0.00525C105.935 0.00371875 105.898 0 105.86 0H91.7983C90.5147 0 89.4741 0.979344 89.4741 2.1875C89.4741 3.39566 90.5147 4.375 91.7983 4.375H100.481L77.5044 26.0002L68.8397 17.8452C68.4039 17.435 67.8126 17.2045 67.1963 17.2045C66.5799 17.2045 65.9886 17.435 65.5528 17.8452L23.7705 57.1699C22.8629 58.0241 22.8629 59.4092 23.7705 60.2637C24.2245 60.6904 24.8192 60.9039 25.414 60.9039C26.0088 60.9039 26.6038 60.6904 27.0575 60.2632L67.1963 22.4853L75.8609 30.6403C76.7685 31.4945 78.2402 31.4945 79.1481 30.6403L103.768 7.46878V14.8647C103.768 16.0729 104.809 17.0522 106.092 17.0522C107.376 17.0522 108.417 16.0729 108.417 14.8647V2.40625C108.417 2.37059 108.413 2.33581 108.411 2.30037Z" fill="#2A3946"/>
</g>
<defs>
<clipPath id="clip0">
<rect width="119" height="112" fill="white"/>
</clipPath>
</defs>
</svg>
