<svg xmlns="http://www.w3.org/2000/svg" width="24.789" height="30.522" viewBox="0 0 24.789 30.522">
  <g id="borrar" transform="translate(0.003 0.001)">
    <path id="Trazado_881" data-name="Trazado 881" d="M223.113,154.7a.715.715,0,0,0-.715.715v13.51a.715.715,0,0,0,1.43,0v-13.51A.715.715,0,0,0,223.113,154.7Zm0,0" transform="translate(-206.504 -143.646)" fill="#2a3a47"/>
    <path id="Trazado_882" data-name="Trazado 882" d="M105.113,154.7a.715.715,0,0,0-.715.715v13.51a.715.715,0,0,0,1.43,0v-13.51A.715.715,0,0,0,105.113,154.7Zm0,0" transform="translate(-96.939 -143.646)" fill="#2a3a47"/>
    <path id="Trazado_883" data-name="Trazado 883" d="M2.027,9.085V26.7a3.944,3.944,0,0,0,1.048,2.72,3.52,3.52,0,0,0,2.554,1.1H19.154a3.519,3.519,0,0,0,2.554-1.1,3.944,3.944,0,0,0,1.048-2.72V9.085a2.731,2.731,0,0,0-.7-5.37H18.4V2.822A2.808,2.808,0,0,0,15.565,0H9.218A2.808,2.808,0,0,0,6.387,2.822v.893H2.728a2.731,2.731,0,0,0-.7,5.37ZM19.154,29.091H5.629A2.264,2.264,0,0,1,3.457,26.7V9.148h17.87V26.7A2.264,2.264,0,0,1,19.154,29.091ZM7.817,2.822a1.377,1.377,0,0,1,1.4-1.394h6.347a1.377,1.377,0,0,1,1.4,1.394v.893H7.817ZM2.728,5.145H22.056a1.287,1.287,0,0,1,0,2.573H2.728a1.287,1.287,0,0,1,0-2.573Zm0,0" transform="translate(0 0)" fill="#2a3a47"/>
    <path id="Trazado_884" data-name="Trazado 884" d="M164.113,154.7a.715.715,0,0,0-.715.715v13.51a.715.715,0,1,0,1.43,0v-13.51A.715.715,0,0,0,164.113,154.7Zm0,0" transform="translate(-151.722 -143.646)" fill="#2a3a47"/>
  </g>
</svg>
