<svg xmlns="http://www.w3.org/2000/svg" width="25.96" height="25.125" viewBox="0 0 25.96 25.125">
  <g id="Grupo_252" data-name="Grupo 252" transform="translate(304.979 -125.689)">
    <path id="Trazado_131" data-name="Trazado 131" d="M-282.474,144.334a1.025,1.025,0,0,0-1.024,1.024v6.54H-302.93v-19.4h9.716a1.026,1.026,0,0,0,1.024-1.024,1.026,1.026,0,0,0-1.024-1.024h-9.8a1.966,1.966,0,0,0-1.961,1.961v19.581a1.967,1.967,0,0,0,1.962,1.96h19.606a1.967,1.967,0,0,0,1.961-1.961v-6.627A1.025,1.025,0,0,0-282.474,144.334Z" transform="translate(0 -3.132)" fill="#fff"/>
    <path id="Trazado_132" data-name="Trazado 132" d="M-263.676,125.981l-.08-.079a1.015,1.015,0,0,0-.718-.209,1.016,1.016,0,0,0-.694.365l-10.419,12.52-3.921-3.173a1.027,1.027,0,0,0-.661-.243c-.032,0-.065,0-.1,0a1.018,1.018,0,0,0-.693.366,1.016,1.016,0,0,0-.231.749,1.018,1.018,0,0,0,.366.693l.029.024,3.77,3.05a2.221,2.221,0,0,0,2.977-.126l.05-.048,10.406-12.505a1.026,1.026,0,0,0-.059-1.376Z" transform="translate(-15.663 0)" fill="#fff"/>
  </g>
</svg>
