<svg xmlns="http://www.w3.org/2000/svg" width="28.913" height="30.135" viewBox="0 0 28.913 30.135">
  <g id="editar" transform="translate(-7.838 0)">
    <g id="Grupo_470" data-name="Grupo 470" transform="translate(7.838 0)">
      <g id="Grupo_469" data-name="Grupo 469" transform="translate(0 0)">
        <path id="Trazado_879" data-name="Trazado 879" d="M26.8,24.109h.163l7.86-1.71a.774.774,0,0,0,.407-.2L48.542,8.878a5.131,5.131,0,0,0,1.507-3.665,5.294,5.294,0,0,0-1.507-3.706A5.131,5.131,0,0,0,44.877,0a5.009,5.009,0,0,0-3.665,1.547L27.936,14.865a.733.733,0,0,0-.244.367l-1.71,7.86a.9.9,0,0,0,.244.774A.814.814,0,0,0,26.8,24.109ZM44.877,1.63A3.543,3.543,0,0,1,48.42,5.172q0,.02,0,.041A3.421,3.421,0,0,1,47.4,7.7l-5.009-5.05A3.5,3.5,0,0,1,44.877,1.63Zm-3.624,2.2,5.009,5.009L34.656,20.4l-5.009-4.968ZM29,17.064,33.027,21.1l-5.172,1.14Z" transform="translate(-24.556 0)" fill="#ec6300"/>
        <path id="Trazado_880" data-name="Trazado 880" d="M35.937,365.717H8.652a.814.814,0,1,0,0,1.629H35.937a.814.814,0,1,0,0-1.629Z" transform="translate(-7.838 -337.211)" fill="#ec6300"/>
      </g>
    </g>
  </g>
</svg>
