<svg width="174" height="174" viewBox="0 0 174 174" fill="none" xmlns="http://www.w3.org/2000/svg">
<g clip-path="url(#clip0)">
<path d="M172.938 109.809L158.438 95.3085C157.024 93.8947 154.726 93.8947 153.312 95.3085L95.3125 153.309C94.6383 153.99 94.2539 154.911 94.2539 155.875V170.375C94.2539 172.376 95.878 174 97.879 174H112.379C113.343 174 114.264 173.616 114.938 172.935L172.939 114.934C174.352 113.52 174.352 111.222 172.938 109.809ZM110.878 166.75H101.504V157.376L155.879 103.001L165.253 112.375L110.878 166.75Z" fill="#2A3946"/>
<path d="M158.436 124.316L143.936 109.816C142.522 108.402 140.224 108.402 138.81 109.816C137.397 111.229 137.397 113.528 138.81 114.942L153.31 129.442C154.021 130.145 154.949 130.5 155.877 130.5C156.805 130.5 157.733 130.145 158.436 129.442C159.85 128.028 159.85 125.73 158.436 124.316Z" fill="#2A3946"/>
<path d="M126.879 0H47.129C46.1649 0 45.2439 0.384363 44.5625 1.05861L1.06252 44.5586C0.38827 45.24 0.00390625 46.161 0.00390625 47.1251V155.875C0.00390625 157.876 1.62802 159.5 3.62902 159.5H79.754C81.755 159.5 83.3791 157.876 83.3791 155.875C83.3791 153.874 81.755 152.25 79.754 152.25H7.25379V48.6259L48.6298 7.24989H123.254V105.125C123.254 107.126 124.878 108.75 126.879 108.75C128.88 108.75 130.504 107.126 130.504 105.125V3.62511C130.504 1.62411 128.88 0 126.879 0Z" fill="#2A3946"/>
<path d="M47.129 0C45.128 0 43.5039 1.62411 43.5039 3.62511V43.5H3.62902C1.62802 43.5 0.00390625 45.1241 0.00390625 47.1251C0.00390625 49.1261 1.62802 50.7502 3.62902 50.7502H47.129C49.13 50.7502 50.7541 49.1261 50.7541 47.1251V3.62511C50.7538 1.62411 49.13 0 47.129 0Z" fill="#2A3946"/>
<path d="M54.3752 72.4999H18.1251C16.1241 72.4999 14.5 74.124 14.5 76.125C14.5 78.126 16.1241 79.7501 18.1251 79.7501H54.3752C56.3762 79.7501 58.0003 78.126 58.0003 76.125C58.0003 74.124 56.3762 72.4999 54.3752 72.4999Z" fill="#2A3946"/>
<path d="M97.8752 101.5H18.1251C16.1241 101.5 14.5 103.124 14.5 105.125C14.5 107.126 16.1241 108.75 18.1251 108.75H97.8752C99.8762 108.75 101.5 107.126 101.5 105.125C101.5 103.124 99.8762 101.5 97.8752 101.5Z" fill="#2A3946"/>
<path d="M47.1253 130.5H18.1251C16.1241 130.5 14.5 132.124 14.5 134.125C14.5 136.126 16.1241 137.75 18.1251 137.75H47.125C49.126 137.75 50.7501 136.126 50.7501 134.125C50.7501 132.124 49.1263 130.5 47.1253 130.5Z" fill="#2A3946"/>
</g>
<defs>
<clipPath id="clip0">
<rect width="174" height="174" fill="white"/>
</clipPath>
</defs>
</svg>
