<svg width="139" height="164" viewBox="0 0 139 164" fill="none" xmlns="http://www.w3.org/2000/svg">
<path d="M72.6701 160.772C72.6701 162.55 71.2205 164 69.4385 164C67.6597 164 66.2102 162.55 66.2102 160.772C66.2102 158.993 67.6597 157.543 69.4385 157.543C71.2205 157.543 72.6701 158.993 72.6701 160.772ZM1.61417 160.772V156.688C1.61417 135.164 16.2128 123.426 22.6049 119.594C31.2862 114.393 40.611 110.461 50.3622 107.877V102.679C48.7364 101.244 47.2501 99.6126 45.9368 97.7937C42.0699 92.4382 38.9138 86.6317 36.5352 80.5011C34.3583 80.2037 32.368 78.8185 31.3447 76.6513C30.3687 74.5855 23.5992 62.0627 22.5619 59.8342C19.9325 54.1842 23.369 48.6024 27.7257 46.8055C28.4511 46.5063 29.1968 46.2851 29.9555 46.1589C29.2501 43.2731 28.8937 40.3053 28.8937 37.2877C28.8937 16.727 45.6207 0 66.1811 0C69.7943 0 73.2163 1.38206 75.8164 3.89145C75.8442 3.91824 75.8878 3.91824 75.9155 3.89145C78.5163 1.38206 81.938 0 85.5512 0C99.5251 0 110.894 11.3686 110.894 25.3425V31.2217C110.894 36.284 110.199 41.2673 108.827 46.0976C109.602 46.2231 110.376 46.4256 111.11 46.7578C116.47 49.1852 118.564 55.1837 116.273 59.7864C115.179 61.9865 108.467 74.5367 107.491 76.6035C106.468 78.7694 104.478 80.1547 102.303 80.453C99.9228 86.5985 96.7619 92.4185 92.8873 97.786C91.5724 99.6071 90.0844 101.241 88.4567 102.678V107.877C98.2076 110.461 107.533 114.393 116.214 119.594C122.606 123.426 137.205 135.163 137.205 156.687V160.772C137.205 162.555 135.759 164 133.976 164H83.9725C83.9693 164 83.9693 164 83.9661 164C82.1159 164 80.6218 162.435 80.7448 160.556C80.8572 158.84 82.36 157.543 84.0794 157.543H130.748C130.748 143.911 123.907 131.733 112.892 125.134C105.116 120.474 96.7881 116.893 88.087 114.465C86.347 123.186 78.6348 129.78 69.4094 129.78C60.1844 129.78 52.4719 123.187 50.7319 114.465C42.0327 116.893 33.7026 120.474 25.9268 125.134C14.9117 131.733 8.07087 143.536 8.07087 157.543H54.9142C56.7672 157.543 58.2594 159.116 58.1319 160.996C58.0153 162.709 56.5135 164 54.797 164H4.84252C3.0595 164 1.61417 162.555 1.61417 160.772V160.772ZM35.362 37.7823C35.66 37.432 40.1148 31.9606 47.7818 31.9606C51.6061 31.9606 55.2793 33.2933 58.188 35.6694C60.8676 37.8578 64.2793 39.063 67.7953 39.063C76.1157 39.063 82.7809 32.371 82.9692 23.8281C83.0079 22.0735 84.4409 20.6711 86.1962 20.6708C87.9511 20.6705 89.3848 22.0722 89.4245 23.8268C89.5172 27.9494 91.736 31.5242 95.2159 33.1561C98.6383 34.7612 101.502 37.1912 103.602 40.1645C104.158 37.229 104.437 34.2415 104.437 31.222V25.3425C104.437 14.9288 95.9652 6.45669 85.5515 6.45669C83.6197 6.45669 81.7902 7.19566 80.3997 8.53736C77.8577 10.9916 73.8749 10.9912 71.3326 8.53736C69.9424 7.19566 68.1129 6.45669 66.1811 6.45669C49.181 6.45669 35.1993 20.1094 35.362 37.7823V37.7823ZM82 106.979C74.3562 110.587 65.5251 111.003 56.8189 106.98V110.732C56.8189 117.675 62.4669 123.323 69.4094 123.323C76.352 123.323 82 117.675 82 110.732V106.979ZM87.6522 94.0069C91.6566 88.4599 94.8314 82.3871 97.0806 75.954C97.4754 74.825 98.975 73.1169 101.516 74.1167C102.714 71.5653 109.458 59.0946 110.436 57.0284C111.18 55.4546 110.28 53.4049 108.587 52.7011C107.631 52.3037 106.574 52.3731 105.644 52.848C103.64 53.8717 101.162 52.6637 100.906 50.449C100.325 45.4215 97.0664 41.1556 92.474 39.002C90.1529 37.9134 88.1732 36.3166 86.6311 34.3625C85.6597 36.1103 84.3987 37.6829 83.014 39.175C76.8866 45.7802 64.0772 48.717 54.1035 40.6704C50.2127 37.5311 44.4262 37.72 40.856 41.3419C38.9138 43.3121 37.7717 45.9717 37.7717 48.689V49.96C37.782 52.3312 35.2619 53.914 33.0951 52.8454C32.1976 52.4028 31.1716 52.3831 30.2483 52.7499C28.7843 53.331 27.5346 55.2264 28.3998 57.0768C29.3683 59.1481 36.2614 71.8055 37.2822 74.1173C40.1251 73.1279 41.4594 75.1585 41.7548 76.0004C44.0062 82.4181 47.1745 88.479 51.1716 94.0146C55.4701 99.9677 62.1176 103.382 69.4085 103.381C76.7023 103.38 83.352 99.9635 87.6522 94.0069ZM138.819 19.3701V3.22835C138.819 1.44533 137.374 0 135.591 0H119.449C117.666 0 116.22 1.44533 116.22 3.22835C116.22 5.01136 117.666 6.45669 119.449 6.45669H132.362V19.3701C132.362 21.1531 133.808 22.5984 135.591 22.5984C137.374 22.5984 138.819 21.1531 138.819 19.3701ZM138.819 107.504V91.3622C138.819 89.5792 137.374 88.1339 135.591 88.1339C133.808 88.1339 132.362 89.5792 132.362 91.3622V104.276H119.449C117.666 104.276 116.22 105.721 116.22 107.504C116.22 109.287 117.666 110.732 119.449 110.732H135.591C137.374 110.732 138.819 109.287 138.819 107.504ZM6.45669 19.3701V6.45669H19.3701C21.1531 6.45669 22.5984 5.01136 22.5984 3.22835C22.5984 1.44533 21.1531 0 19.3701 0H3.22835C1.44533 0 0 1.44533 0 3.22835V19.3701C0 21.1531 1.44533 22.5984 3.22835 22.5984C5.01136 22.5984 6.45669 21.1531 6.45669 19.3701ZM22.5984 107.504C22.5984 105.721 21.1531 104.276 19.3701 104.276H6.45669V91.3622C6.45669 89.5792 5.01136 88.1339 3.22835 88.1339C1.44533 88.1339 0 89.5792 0 91.3622V107.504C0 109.287 1.44533 110.732 3.22835 110.732H19.3701C21.1531 110.732 22.5984 109.287 22.5984 107.504Z" fill="#2A3946"/>
</svg>
