<svg xmlns="http://www.w3.org/2000/svg" width="103.689" height="104.539" viewBox="0 0 103.689 104.539">
  <g id="Grupo_249" data-name="Grupo 249" transform="translate(-12 -10)">
    <path id="Trazado_121" data-name="Trazado 121" d="M73.19,174.2h12.2a1.86,1.86,0,0,0,1.858-1.857v-4.125a1.275,1.275,0,0,0-2.55,0v3.432H73.882v-10.8H79.29a1.275,1.275,0,0,0,0-2.55h-6.1a1.859,1.859,0,0,0-1.858,1.857v12.186A1.86,1.86,0,0,0,73.19,174.2Z" transform="translate(-46.725 -116.79)" fill="#2a3a47"/>
    <path id="Trazado_122" data-name="Trazado 122" d="M107.033,153.84a1.275,1.275,0,0,0-1.8.164h0l-6.082,7.308L97.2,159.733a1.275,1.275,0,0,0-1.627,1.963l.024.019,2.346,1.9a2.021,2.021,0,0,0,2.7-.119l.051-.049,6.5-7.809a1.275,1.275,0,0,0-.164-1.8Z" transform="translate(-65.456 -113.045)" fill="#2a3a47"/>
    <path id="Trazado_123" data-name="Trazado 123" d="M253,162.482H203.25a1.275,1.275,0,1,0,0,2.55H253a1.275,1.275,0,1,0,0-2.55Z" transform="translate(-149.61 -120.083)" fill="#2a3a47"/>
    <path id="Trazado_124" data-name="Trazado 124" d="M253,212.193H203.25a1.275,1.275,0,1,0,0,2.55H253a1.275,1.275,0,1,0,0-2.55Z" transform="translate(-149.61 -159.232)" fill="#2a3a47"/>
    <path id="Trazado_125" data-name="Trazado 125" d="M85.974,294.111a1.275,1.275,0,0,0-1.275,1.275v3.433H73.882v-10.8H79.29a1.275,1.275,0,0,0,0-2.55h-6.1a1.86,1.86,0,0,0-1.858,1.857v12.185a1.86,1.86,0,0,0,1.858,1.857h12.2a1.86,1.86,0,0,0,1.858-1.857v-4.125A1.275,1.275,0,0,0,85.974,294.111Z" transform="translate(-46.725 -216.938)" fill="#2a3a47"/>
    <path id="Trazado_126" data-name="Trazado 126" d="M107.039,281.007a1.275,1.275,0,0,0-1.8.165h0l-6.081,7.307L97.211,286.9a1.275,1.275,0,0,0-1.625,1.965l.021.017,2.346,1.9a2.021,2.021,0,0,0,2.7-.119l.051-.049,6.5-7.809a1.275,1.275,0,0,0-.164-1.8Z" transform="translate(-65.462 -213.192)" fill="#2a3a47"/>
    <path id="Trazado_127" data-name="Trazado 127" d="M398.985,289.65H388.627a1.275,1.275,0,1,0,0,2.55h10.358a1.275,1.275,0,1,0,0-2.55Z" transform="translate(-295.598 -220.231)" fill="#2a3a47"/>
    <path id="Trazado_128" data-name="Trazado 128" d="M219.406,289.65H203.25a1.275,1.275,0,1,0,0,2.55h16.157a1.275,1.275,0,0,0,0-2.55Z" transform="translate(-149.61 -220.231)" fill="#2a3a47"/>
    <path id="Trazado_129" data-name="Trazado 129" d="M207.6,339.362H203.25a1.275,1.275,0,1,0,0,2.55H207.6a1.275,1.275,0,1,0,0-2.55Z" transform="translate(-149.61 -259.38)" fill="#2a3a47"/>
    <path id="Trazado_130" data-name="Trazado 130" d="M109.817,10H17.872A5.878,5.878,0,0,0,12,15.871V92.065a5.876,5.876,0,0,0,5.863,5.871l48.623.344,2.463,9.679c0,.017.009.034.014.052a9.1,9.1,0,0,0,8.768,6.528H95.506a9.167,9.167,0,0,0,9.155-9.158V98.22l5.193-.283a5.878,5.878,0,0,0,5.835-5.871V15.871A5.878,5.878,0,0,0,109.817,10ZM17.872,12.55h91.945a3.325,3.325,0,0,1,3.322,3.321V28.779H14.55V15.871a3.325,3.325,0,0,1,3.322-3.321Zm84.239,92.831a6.615,6.615,0,0,1-6.6,6.608H77.731a6.564,6.564,0,0,1-6.318-4.685l-2.7-10.6a45.187,45.187,0,0,0-2.537-7.288l-.209-.5a8.389,8.389,0,0,1,6.905,3.625l2.192,3.176v4.735a1.275,1.275,0,0,0,2.55,0h0v-30.4a2.4,2.4,0,0,1,4.8,0V88.433a1.275,1.275,0,0,0,.054.368V94a1.275,1.275,0,1,0,2.55,0v-7.12a1.9,1.9,0,0,1,3.8,0v1.448a4.618,4.618,0,0,0-.05.672v5a1.275,1.275,0,0,0,1.275,1.275h.05A1.275,1.275,0,0,0,91.37,94V88.55a2.046,2.046,0,0,1,4.044.443V95.32a1.275,1.275,0,0,0,2.55,0V90.991a2.074,2.074,0,0,1,4.148-.042q0,.021,0,.042Zm7.706-9.993c-.023,0-.046,0-.069,0l-5.086.276V90.992a4.619,4.619,0,0,0-7.109-3.9,4.591,4.591,0,0,0-6.571-2.03A4.432,4.432,0,0,0,85.136,82.8q-.087.039-.173.081V70.052a4.948,4.948,0,0,0-9.9-.006V91.228l-.094-.136a10.938,10.938,0,0,0-9-4.726,2.559,2.559,0,0,0-2.335,3.6l.215.481A42.638,42.638,0,0,1,65.8,95.726l-47.928-.34a3.325,3.325,0,0,1-3.321-3.32V31.329h98.589V92.066a3.325,3.325,0,0,1-3.322,3.321Z" transform="translate(0 0)" fill="#2a3a47"/>
  </g>
</svg>
