<?xml version="1.0" encoding="utf-8"?>
<!-- Generator: Adobe Illustrator 23.0.1, SVG Export Plug-In . SVG Version: 6.00 Build 0)  -->
<svg version="1.1" id="Layer_1" xmlns="http://www.w3.org/2000/svg" xmlns:xlink="http://www.w3.org/1999/xlink" x="0px" y="0px"
	 viewBox="0 0 231 61.4" style="enable-background:new 0 0 231 61.4;" xml:space="preserve">
<style type="text/css">
	.st0{fill:#243746;}
	.st1{fill:#EC7700;}
</style>
<g>
	<g>
		<path class="st0" d="M72,5.7V15h-0.7c-0.2-1.8-0.7-3.2-1.3-4.3c-0.6-1.1-1.5-1.9-2.6-2.5s-2.3-0.9-3.5-0.9c-1.4,0-2.5,0.4-3.4,1.3
			c-0.9,0.8-1.3,1.8-1.3,2.9c0,0.8,0.3,1.6,0.9,2.2c0.8,1,2.8,2.3,5.9,4c2.3,1.3,4,2.3,5,3.1c0.9,0.7,1.6,1.6,2.1,2.5
			c0.5,1,0.7,2,0.7,3.1c0,2-0.8,3.8-2.4,5.3c-1.6,1.5-3.6,2.2-6.1,2.2c-0.8,0-1.5-0.1-2.2-0.2c-0.4-0.1-1.3-0.3-2.5-0.7
			c-1.3-0.4-2.1-0.6-2.4-0.6c-0.3,0-0.6,0.1-0.8,0.3s-0.3,0.6-0.4,1.2h-0.7v-9.2H57c0.3,1.9,0.8,3.4,1.4,4.3c0.6,1,1.5,1.8,2.7,2.4
			s2.5,1,3.9,1c1.7,0,3-0.4,3.9-1.3c1-0.9,1.4-1.9,1.4-3.1c0-0.7-0.2-1.3-0.5-2c-0.4-0.7-0.9-1.3-1.7-1.9c-0.5-0.4-1.9-1.2-4.2-2.5
			S60,19.3,59,18.5c-1-0.8-1.7-1.6-2.2-2.5S56,14.1,56,12.9c0-1.9,0.7-3.6,2.2-5s3.4-2.1,5.7-2.1c1.4,0,2.9,0.3,4.5,1.1
			c0.7,0.3,1.3,0.5,1.6,0.5c0.3,0,0.6-0.1,0.8-0.3c0.2-0.2,0.4-0.6,0.5-1.2H72V5.7z"/>
		<path class="st0" d="M94.1,22.8l-4.6-10.9l-4.7,10.9l0,0l-0.6,1.5l-1.8,4.2c-0.4,1-0.7,1.8-0.7,2.3c0,0.4,0.2,0.8,0.6,1.1
			s1.2,0.5,2.5,0.6v0.7h-8.5v-0.7c1.1-0.2,1.9-0.5,2.2-0.8c0.7-0.6,1.4-1.9,2.2-3.9l9.5-22.1H91l9.4,22.4c0.8,1.8,1.4,3,2.1,3.5
			c0.6,0.5,1.5,0.8,2.6,0.9v0.7H94.4v-0.7c1.1-0.1,1.8-0.2,2.2-0.5c0.4-0.3,0.6-0.7,0.6-1.1c0-0.6-0.3-1.5-0.8-2.8l-1.6-3.9
			L94.1,22.8z"/>
		<path class="st0" d="M133.3,33.2h-7.2L117,20.7c-0.7,0-1.2,0-1.6,0c-0.2,0-0.4,0-0.6,0s-0.4,0-0.6,0v7.8c0,1.7,0.2,2.7,0.6,3.2
			c0.5,0.6,1.3,0.9,2.3,0.9h1.1v0.7h-11.5v-0.7h1c1.1,0,1.9-0.4,2.4-1.1c0.3-0.4,0.4-1.4,0.4-2.9V11.1c0-1.7-0.2-2.7-0.6-3.2
			c-0.5-0.6-1.3-0.9-2.3-0.9h-1V6.4h9.8c2.9,0,5,0.2,6.3,0.6c1.4,0.4,2.5,1.2,3.5,2.3c0.9,1.1,1.4,2.5,1.4,4c0,1.7-0.5,3.1-1.6,4.3
			s-2.7,2.1-5,2.6l5.6,7.7c1.3,1.8,2.4,2.9,3.3,3.5c0.9,0.6,2.1,1,3.6,1.1v0.7H133.3z M114.2,19.4c0.3,0,0.5,0,0.7,0s0.3,0,0.5,0
			c2.6,0,4.5-0.6,5.8-1.7s2-2.5,2-4.2s-0.5-3-1.6-4.1c-1.1-1-2.4-1.6-4.2-1.6c-0.8,0-1.8,0.1-3.1,0.4v11.2H114.2z"/>
		<path class="st0" d="M156.4,6.4l0.3,6.3H156c-0.1-1.1-0.3-1.9-0.6-2.4c-0.4-0.8-1-1.3-1.6-1.7c-0.7-0.4-1.6-0.5-2.7-0.5h-3.8v20.5
			c0,1.7,0.2,2.7,0.5,3.1c0.5,0.6,1.3,0.8,2.3,0.8h0.9v0.7h-11.4v-0.7h1c1.1,0,1.9-0.3,2.4-1c0.3-0.4,0.4-1.4,0.4-2.9V8h-3.2
			c-1.3,0-2.1,0.1-2.7,0.3c-0.7,0.3-1.3,0.7-1.8,1.4s-0.8,1.7-0.9,2.9H134l0.3-6.3L156.4,6.4L156.4,6.4z"/>
		<path class="st0" d="M216.3,33.2h-7.2L200,20.6c-0.7,0-1.2,0-1.6,0c-0.2,0-0.4,0-0.6,0c-0.2,0-0.4,0-0.6,0v7.8
			c0,1.7,0.2,2.7,0.6,3.2c0.5,0.6,1.3,0.9,2.3,0.9h1.1v0.7h-11.5v-0.7h1c1.1,0,1.9-0.4,2.4-1.1c0.3-0.4,0.4-1.4,0.4-2.9V11.1
			c0-1.7-0.2-2.7-0.6-3.2c-0.5-0.6-1.3-0.9-2.3-0.9h-1V6.4h9.8c2.9,0,5,0.2,6.3,0.6c1.4,0.4,2.5,1.2,3.5,2.3c0.9,1.1,1.4,2.5,1.4,4
			c0,1.7-0.5,3.1-1.6,4.3s-2.7,2.1-5,2.6l5.6,7.7c1.3,1.8,2.4,2.9,3.3,3.5c0.9,0.6,2.1,1,3.6,1.1v0.7H216.3z M197.2,19.4
			c0.3,0,0.5,0,0.7,0s0.3,0,0.5,0c2.6,0,4.5-0.6,5.8-1.7s2-2.5,2-4.2s-0.5-3-1.6-4.1c-1.1-1-2.4-1.6-4.2-1.6c-0.8,0-1.8,0.1-3.1,0.4
			L197.2,19.4L197.2,19.4z"/>
		<g>
			<rect x="56.1" y="37.4" class="st0" width="0.9" height="0.7"/>
			<path class="st0" d="M213.4,38.1h-1.9v-0.7h1.9V38.1z M209.7,38.1h-1.9v-0.7h1.9V38.1z M206,38.1h-1.9v-0.7h1.9V38.1z
				 M202.2,38.1h-1.9v-0.7h1.9V38.1z M198.5,38.1h-1.9v-0.7h1.9V38.1z M194.8,38.1h-1.9v-0.7h1.9V38.1z M191.1,38.1h-1.9v-0.7h1.9
				V38.1z M187.4,38.1h-1.9v-0.7h1.9V38.1z M183.6,38.1h-1.9v-0.7h1.9V38.1z M179.9,38.1H178v-0.7h1.9V38.1z M176.2,38.1h-1.9v-0.7
				h1.9V38.1z M172.5,38.1h-1.9v-0.7h1.9V38.1z M168.7,38.1h-1.9v-0.7h1.9V38.1z M165,38.1h-1.9v-0.7h1.9V38.1z M161.3,38.1h-1.9
				v-0.7h1.9V38.1z M157.6,38.1h-1.9v-0.7h1.9V38.1z M153.8,38.1H152v-0.7h1.9L153.8,38.1L153.8,38.1z M150.1,38.1h-1.9v-0.7h1.9
				V38.1z M146.4,38.1h-1.9v-0.7h1.9V38.1z M142.7,38.1h-1.9v-0.7h1.9V38.1z M139,38.1h-1.9v-0.7h1.9V38.1z M135.2,38.1h-1.9v-0.7
				h1.9V38.1z M131.5,38.1h-1.9v-0.7h1.9V38.1z M127.8,38.1h-1.9v-0.7h1.9V38.1z M124.1,38.1h-1.9v-0.7h1.9V38.1z M120.3,38.1h-1.9
				v-0.7h1.9V38.1z M116.6,38.1h-1.9v-0.7h1.9V38.1z M112.9,38.1H111v-0.7h1.9V38.1z M109.2,38.1h-1.9v-0.7h1.9V38.1z M105.4,38.1
				h-1.9v-0.7h1.9V38.1z M101.7,38.1h-1.9v-0.7h1.9V38.1z M98,38.1h-1.9v-0.7H98V38.1z M94.3,38.1h-1.9v-0.7h1.9V38.1z M90.6,38.1
				h-1.9v-0.7h1.9V38.1z M86.8,38.1H85v-0.7h1.9L86.8,38.1L86.8,38.1z M83.1,38.1h-1.9v-0.7h1.9V38.1z M79.4,38.1h-1.9v-0.7h1.9
				V38.1z M75.7,38.1h-1.9v-0.7h1.9V38.1z M71.9,38.1H70v-0.7h1.9V38.1z M68.2,38.1h-1.9v-0.7h1.9V38.1z M64.5,38.1h-1.9v-0.7h1.9
				V38.1z M60.8,38.1h-1.9v-0.7h1.9V38.1z"/>
			<rect x="215.3" y="37.4" class="st0" width="0.9" height="0.7"/>
		</g>
		<path class="st0" d="M173.5,5.5c3.5,0,6.5,1.3,9,4c2.6,2.6,3.8,5.9,3.8,9.9c0,4.1-1.3,7.5-3.9,10.1c-2.6,2.7-5.7,4-9.3,4
			c-3.7,0-6.8-1.3-9.3-3.9s-3.8-6-3.8-10.2c0-4.3,1.5-7.7,4.4-10.4C166.9,6.6,170,5.5,173.5,5.5z M173.1,6.9c-2.4,0-4.3,0.9-5.8,2.7
			c-1.8,2.2-2.7,5.5-2.7,9.7c0,4.4,0.9,7.7,2.8,10.1c1.4,1.8,3.3,2.7,5.7,2.7c2.5,0,4.6-1,6.2-2.9c1.6-2,2.5-5.1,2.5-9.3
			c0-4.6-0.9-8-2.7-10.3C177.7,7.8,175.6,6.9,173.1,6.9z"/>
		<path class="st1" d="M16.9,33.7c0-0.6,0.2-1.5,0.5-2c0.2-0.4,0.5-0.7,0.9-0.8c0.4-0.2,1.3-0.3,2.7-0.3h9.5c1.6,0,2.6,0.2,3.1,0.5
			c0.9,0.5,1,1.6,1,2.6h1.9v-13h-1.9v0.1c0,0.6-0.2,1.6-0.5,2.1c-0.2,0.4-0.5,0.7-0.9,0.8c-0.4,0.2-1.3,0.3-2.7,0.3H21
			c-1.6,0-2.6-0.2-3.1-0.5c-0.8-0.5-1-1.6-1-2.7v-0.1H15v13C15,33.7,16.9,33.7,16.9,33.7z"/>
		<path class="st0" d="M26.1,5.6c5.9,0,11,2.1,15.3,6.2s6.5,9.3,6.5,15.5c0,6.4-2.2,11.7-6.5,15.9s-9.6,6.3-15.7,6.3
			c-6.2,0-11.5-2.1-15.7-6.2s-6.4-9.4-6.4-15.9c0-6.7,2.4-12.1,7.3-16.3C15.1,7.5,20.2,5.6,26.1,5.6z M25.5,9c-4,0-7.9,1.4-10.3,4.2
			c-3,3.5-4.6,7.4-4.6,14.1c0,6.9,1.6,11,4.7,14.7c2.4,2.8,6.2,4.2,10.2,4.2c4.2,0,8.3-1.5,11.1-4.6s4.2-6.8,4.2-13.4
			c0-7.2-1.5-11.4-4.6-14.9C33.8,10.4,29.8,9,25.5,9z"/>
	</g>
	<g>
		<g>
			<path class="st0" d="M65.3,47.5H63L62.3,49h-0.8l2.9-5.8h0.8l1.2,5.8h-0.8L65.3,47.5z M63.3,46.9h1.9l-0.5-2.8L63.3,46.9z"/>
			<path class="st0" d="M68.2,43.2h1.7c0.3,0,0.7,0.1,0.9,0.2c0.3,0.1,0.5,0.3,0.7,0.5s0.4,0.4,0.5,0.7s0.2,0.6,0.2,1
				c0,0.1,0,0.2,0,0.3s0,0.2,0,0.3c-0.1,0.4-0.2,0.8-0.4,1.2c-0.2,0.4-0.4,0.7-0.7,0.9c-0.3,0.3-0.6,0.4-0.9,0.6
				c-0.3,0.1-0.7,0.2-1.1,0.2h-1.7L68.2,43.2z M68.9,43.8l-0.7,4.5H69c0.3,0,0.5,0,0.8-0.1s0.5-0.2,0.7-0.4s0.4-0.4,0.5-0.7
				s0.2-0.6,0.3-1c0-0.1,0-0.2,0-0.3s0-0.2,0-0.3c0-0.3,0-0.6-0.1-0.8s-0.2-0.4-0.3-0.5c-0.1-0.1-0.3-0.2-0.5-0.3s-0.4-0.1-0.7-0.1
				C69.7,43.8,68.9,43.8,68.9,43.8z"/>
			<path class="st0" d="M76.2,46.2l2.1-2.9h1L78.5,49h-0.8l0.4-2.9l0.3-2l-2,2.9h-0.7l-1.2-3l-0.2,2l-0.4,3h-0.8l0.8-5.8h1
				L76.2,46.2z"/>
			<path class="st0" d="M79.8,49l0.1-0.6h0.8l0.7-4.5h-0.8l0.1-0.6H83l-0.1,0.6h-0.8l-0.7,4.5h0.8L82.1,49H79.8z"/>
			<path class="st0" d="M84.2,43.2H85l0,0l0,0l2.2,4.5l0.6-4.5h0.8L87.8,49H87l-2.2-4.5L84.2,49h-0.8L84.2,43.2z"/>
			<path class="st0" d="M89.1,49l0.1-0.6H90l0.7-4.5h-0.8l0.1-0.6h2.3l-0.1,0.6h-0.8l-0.7,4.5h0.8L91.4,49H89.1z"/>
			<path class="st0" d="M96.3,47.5c0,0.2-0.1,0.5-0.2,0.7s-0.3,0.4-0.4,0.5c-0.2,0.1-0.4,0.2-0.6,0.3s-0.5,0.1-0.8,0.1
				c-0.2,0-0.3,0-0.5,0s-0.3,0-0.5-0.1c-0.2,0-0.3-0.1-0.4-0.1s-0.2-0.1-0.3-0.1l0.3-0.6c0.1,0,0.2,0.1,0.3,0.1
				c0.1,0,0.2,0.1,0.3,0.1c0.1,0,0.2,0.1,0.4,0.1c0.1,0,0.3,0,0.4,0c0.2,0,0.3,0,0.5-0.1c0.1,0,0.3-0.1,0.4-0.2
				c0.1-0.1,0.2-0.2,0.3-0.3c0.1-0.1,0.1-0.3,0.1-0.4c0-0.1,0-0.3,0-0.4c0-0.1-0.1-0.2-0.2-0.3s-0.2-0.2-0.4-0.2
				c-0.2-0.1-0.3-0.1-0.5-0.2c-0.2-0.1-0.4-0.1-0.5-0.2c-0.2-0.1-0.3-0.2-0.4-0.3s-0.2-0.3-0.3-0.4C93,45.3,93,45.1,93,44.9v-0.1
				v-0.1c0-0.3,0.1-0.5,0.2-0.7s0.3-0.4,0.4-0.5c0.2-0.1,0.4-0.2,0.6-0.3s0.5-0.1,0.8-0.1c0.2,0,0.3,0,0.5,0s0.3,0.1,0.4,0.1
				s0.3,0.1,0.4,0.1s0.2,0.1,0.3,0.1L96.4,44c-0.1,0-0.2-0.1-0.3-0.1s-0.2-0.1-0.3-0.1c-0.1,0-0.2-0.1-0.3-0.1c-0.1,0-0.3,0-0.4,0
				c-0.2,0-0.3,0-0.5,0.1c-0.1,0-0.3,0.1-0.4,0.2c-0.1,0.1-0.2,0.2-0.2,0.3c-0.1,0.1-0.1,0.2-0.1,0.4s0,0.4,0.2,0.6
				c0.2,0.2,0.4,0.3,0.8,0.5c0.2,0.1,0.5,0.2,0.7,0.3s0.3,0.2,0.5,0.3c0.1,0.1,0.2,0.3,0.3,0.4c0.1,0.1,0.1,0.3,0.1,0.5
				C96.4,47.4,96.3,47.4,96.3,47.5z"/>
			<path class="st0" d="M100,43.8L99.3,49h-0.8l0.7-5.2h-1.7l0.1-0.6h4.3l-0.1,0.6H100z"/>
			<path class="st0" d="M102.9,43.2h1.8c0.3,0,0.5,0,0.7,0.1s0.4,0.2,0.5,0.3s0.3,0.3,0.3,0.4c0.1,0.2,0.1,0.4,0.1,0.6v0.1v0.1
				c0,0.2-0.1,0.3-0.1,0.5c-0.1,0.1-0.2,0.3-0.3,0.4c-0.1,0.1-0.2,0.2-0.3,0.3c-0.1,0.1-0.2,0.2-0.4,0.3l0.8,2.6h-0.8l-0.7-2.5h-1.3
				l-0.4,2.5H102L102.9,43.2z M103.6,43.8l-0.3,2.1h1.7c0.1-0.1,0.1-0.1,0.2-0.2c0.1-0.1,0.1-0.1,0.2-0.2s0.1-0.2,0.2-0.3
				c0-0.1,0.1-0.2,0.1-0.4v-0.1v-0.1c0-0.1,0-0.3-0.1-0.4c0-0.1-0.1-0.2-0.2-0.2c-0.1-0.1-0.2-0.1-0.3-0.1c-0.1,0-0.3,0-0.5,0
				L103.6,43.8L103.6,43.8z"/>
			<path class="st0" d="M110.5,47.5h-2.3l-0.7,1.5h-0.8l2.9-5.8h0.8l1.2,5.8h-0.8L110.5,47.5z M108.5,46.9h1.9l-0.5-2.8L108.5,46.9z
				"/>
			<path class="st0" d="M113.4,43.2h1.7c0.3,0,0.7,0.1,0.9,0.2c0.3,0.1,0.5,0.3,0.7,0.5s0.4,0.4,0.5,0.7s0.2,0.6,0.2,1
				c0,0.1,0,0.2,0,0.3s0,0.2,0,0.3c-0.1,0.4-0.2,0.8-0.4,1.2c-0.2,0.4-0.4,0.7-0.7,0.9c-0.3,0.3-0.6,0.4-0.9,0.6
				c-0.3,0.1-0.7,0.2-1.1,0.2h-1.7L113.4,43.2z M114.1,43.8l-0.7,4.5h0.8c0.3,0,0.5,0,0.8-0.1s0.5-0.2,0.7-0.4s0.4-0.4,0.5-0.7
				s0.2-0.6,0.3-1c0-0.1,0-0.2,0-0.3s0-0.2,0-0.3c0-0.3,0-0.6-0.1-0.8s-0.2-0.4-0.3-0.5c-0.1-0.1-0.3-0.2-0.5-0.3s-0.4-0.1-0.7-0.1
				C114.9,43.8,114.1,43.8,114.1,43.8z"/>
			<path class="st0" d="M118.4,46.1c0.1-0.5,0.2-0.9,0.4-1.3c0.2-0.4,0.4-0.7,0.6-0.9c0.3-0.3,0.5-0.4,0.8-0.6
				c0.3-0.1,0.6-0.2,1-0.2c0.3,0,0.6,0.1,0.8,0.2c0.3,0.1,0.5,0.3,0.6,0.5c0.2,0.2,0.3,0.4,0.4,0.7s0.1,0.6,0.1,1c0,0.1,0,0.2,0,0.3
				s0,0.2,0,0.3c-0.1,0.5-0.2,0.9-0.4,1.3c-0.2,0.4-0.4,0.7-0.6,0.9c-0.3,0.3-0.5,0.4-0.8,0.6c-0.3,0.1-0.6,0.2-1,0.2
				c-0.3,0-0.6-0.1-0.8-0.2c-0.2-0.1-0.5-0.3-0.6-0.5c-0.2-0.2-0.3-0.4-0.4-0.7s-0.1-0.6-0.1-1c0-0.1,0-0.2,0-0.3
				C118.3,46.3,118.4,46.2,118.4,46.1z M119.2,46.1c0,0.1,0,0.2,0,0.4c0,0.1,0,0.2,0,0.3c0,0.3,0,0.5,0.1,0.7s0.2,0.4,0.3,0.5
				c0.1,0.1,0.3,0.2,0.4,0.3c0.2,0.1,0.3,0.1,0.5,0.1s0.5,0,0.7-0.1s0.4-0.2,0.6-0.4s0.3-0.4,0.4-0.7s0.2-0.6,0.3-1
				c0-0.1,0-0.2,0-0.4c0-0.1,0-0.2,0-0.3c0-0.3,0-0.5-0.1-0.7s-0.2-0.4-0.3-0.5c-0.1-0.1-0.3-0.2-0.4-0.3c-0.2-0.1-0.3-0.1-0.6-0.1
				c-0.2,0-0.4,0-0.7,0.1s-0.4,0.2-0.6,0.4s-0.3,0.4-0.4,0.7C119.3,45.4,119.2,45.7,119.2,46.1z"/>
			<path class="st0" d="M124.8,43.2h1.8c0.3,0,0.5,0,0.7,0.1s0.4,0.2,0.5,0.3s0.3,0.3,0.3,0.4c0.1,0.2,0.1,0.4,0.1,0.6v0.1v0.1
				c0,0.2-0.1,0.3-0.1,0.5c-0.1,0.1-0.2,0.3-0.3,0.4c-0.1,0.1-0.2,0.2-0.3,0.3c-0.1,0.1-0.2,0.2-0.4,0.3L128,49h-0.8l-0.7-2.5h-1.3
				l-0.4,2.5H124L124.8,43.2z M125.5,43.8l-0.3,2.1h1.7c0.1-0.1,0.1-0.1,0.2-0.2c0.1-0.1,0.1-0.1,0.2-0.2s0.1-0.2,0.2-0.3
				c0-0.1,0.1-0.2,0.1-0.4v-0.1v-0.1c0-0.1,0-0.3-0.1-0.4c0-0.1-0.1-0.2-0.2-0.2c-0.1-0.1-0.2-0.1-0.3-0.1c-0.1,0-0.3,0-0.5,0
				L125.5,43.8L125.5,43.8z"/>
			<path class="st0" d="M132.4,47.5h-2.3l-0.7,1.5h-0.8l2.9-5.8h0.8l1.2,5.8h-0.8L132.4,47.5z M130.4,46.9h1.9l-0.5-2.8L130.4,46.9z
				"/>
			<path class="st0" d="M139.2,46.1h2l-0.4,2.6c-0.3,0.1-0.6,0.2-0.9,0.3c-0.3,0.1-0.6,0.1-0.9,0.1c-0.4,0-0.7-0.1-1-0.2
				c-0.3-0.1-0.5-0.3-0.7-0.5s-0.3-0.5-0.4-0.8c-0.1-0.3-0.2-0.6-0.2-1c0-0.2,0-0.3,0-0.5c0.1-0.5,0.2-0.9,0.4-1.3
				c0.2-0.4,0.4-0.7,0.7-0.9c0.3-0.3,0.6-0.4,1-0.6c0.4-0.1,0.8-0.2,1.2-0.2c0.3,0,0.5,0,0.7,0.1s0.3,0.1,0.5,0.2L141,44
				c-0.1,0-0.3-0.1-0.4-0.1c-0.2,0-0.4-0.1-0.6-0.1c-0.3,0-0.6,0.1-0.9,0.2c-0.3,0.1-0.5,0.2-0.7,0.4s-0.4,0.4-0.5,0.7
				s-0.2,0.6-0.3,1c0,0.1,0,0.2,0,0.2c0,0.1,0,0.2,0,0.2c0,0.3,0,0.5,0.1,0.7s0.2,0.4,0.3,0.6c0.1,0.2,0.3,0.3,0.5,0.4
				s0.4,0.1,0.7,0.1c0.2,0,0.3,0,0.5,0s0.3-0.1,0.5-0.1l0.2-1.6h-1.2L139.2,46.1z"/>
			<path class="st0" d="M142.1,49l0.8-5.8h3.3l-0.1,0.6h-2.5l-0.3,1.9h2.2l-0.1,0.6h-2.2l-0.3,2h2.5l-0.1,0.6h-3.2V49z"/>
			<path class="st0" d="M147.3,43.2h0.8l0,0l0,0l2.2,4.5l0.6-4.5h0.8L151,49h-0.8l-2.2-4.5l-0.6,4.5h-0.8L147.3,43.2z"/>
			<path class="st0" d="M152.4,49l0.8-5.8h3.3l-0.1,0.6H154l-0.3,1.9h2.2l-0.1,0.6h-2.2l-0.3,2h2.5l-0.1,0.6h-3.3V49z"/>
			<path class="st0" d="M157.6,43.2h1.8c0.3,0,0.5,0,0.7,0.1s0.4,0.2,0.5,0.3s0.3,0.3,0.3,0.4c0.1,0.2,0.1,0.4,0.1,0.6v0.1v0.1
				c0,0.2-0.1,0.3-0.1,0.5c-0.1,0.1-0.2,0.3-0.3,0.4c-0.1,0.1-0.2,0.2-0.3,0.3s-0.2,0.2-0.4,0.3l0.8,2.6H160l-0.7-2.5H158l-0.4,2.5
				h-0.8L157.6,43.2z M158.4,43.8l-0.3,2.1h1.7c0.1-0.1,0.1-0.1,0.2-0.2c0.1-0.1,0.1-0.1,0.2-0.2c0.1-0.1,0.1-0.2,0.2-0.3
				c0-0.1,0.1-0.2,0.1-0.4v-0.1v-0.1c0-0.1,0-0.3-0.1-0.4c0-0.1-0.1-0.2-0.2-0.2c-0.1-0.1-0.2-0.1-0.3-0.1s-0.3,0-0.5,0L158.4,43.8
				L158.4,43.8z"/>
			<path class="st0" d="M165.3,47.5H163l-0.7,1.5h-0.8l2.9-5.8h0.8l1.2,5.8h-0.8L165.3,47.5z M163.3,46.9h1.9l-0.5-2.8L163.3,46.9z"
				/>
			<path class="st0" d="M168.2,43.2h0.8l-0.7,5.2h2.5l-0.1,0.6h-3.3L168.2,43.2z"/>
			<path class="st0" d="M174.4,43.2h1.7c0.3,0,0.7,0.1,0.9,0.2c0.3,0.1,0.5,0.3,0.7,0.5s0.4,0.4,0.5,0.7s0.2,0.6,0.2,1
				c0,0.1,0,0.2,0,0.3s0,0.2,0,0.3c-0.1,0.4-0.2,0.8-0.4,1.2s-0.4,0.7-0.7,0.9c-0.3,0.3-0.6,0.4-0.9,0.6c-0.3,0.1-0.7,0.2-1.1,0.2
				h-1.7L174.4,43.2z M175.2,43.8l-0.7,4.5h0.8c0.3,0,0.5,0,0.8-0.1s0.5-0.2,0.7-0.4s0.4-0.4,0.5-0.7s0.2-0.6,0.3-1
				c0-0.1,0-0.2,0-0.3s0-0.2,0-0.3c0-0.3,0-0.6-0.1-0.8s-0.2-0.4-0.3-0.5s-0.3-0.2-0.5-0.3s-0.4-0.1-0.7-0.1
				C176,43.8,175.2,43.8,175.2,43.8z"/>
			<path class="st0" d="M179.3,49l0.8-5.8h3.3l-0.1,0.6h-2.5l-0.3,1.9h2.2l-0.1,0.6h-2.2l-0.3,2h2.5l-0.1,0.6h-3.2V49z"/>
			<path class="st0" d="M186.8,46.3l-0.4,2.6h-0.8l0.8-5.8h3.1l-0.1,0.6h-2.3l-0.3,1.9h2l-0.1,0.6h-1.9V46.3z"/>
			<path class="st0" d="M189.9,46.1c0.1-0.5,0.2-0.9,0.4-1.3c0.2-0.4,0.4-0.7,0.6-0.9c0.3-0.3,0.5-0.4,0.8-0.6
				c0.3-0.1,0.6-0.2,1-0.2c0.3,0,0.6,0.1,0.8,0.2c0.3,0.1,0.5,0.3,0.6,0.5c0.2,0.2,0.3,0.4,0.4,0.7c0.1,0.3,0.1,0.6,0.1,1
				c0,0.1,0,0.2,0,0.3s0,0.2,0,0.3c-0.1,0.5-0.2,0.9-0.4,1.3c-0.2,0.4-0.4,0.7-0.6,0.9c-0.3,0.3-0.5,0.4-0.8,0.6
				c-0.3,0.1-0.6,0.2-1,0.2c-0.3,0-0.6-0.1-0.8-0.2c-0.2-0.1-0.5-0.3-0.6-0.5c-0.2-0.2-0.3-0.4-0.4-0.7c-0.1-0.3-0.1-0.6-0.1-1
				c0-0.1,0-0.2,0-0.3C189.8,46.3,189.8,46.2,189.9,46.1z M190.7,46.1c0,0.1,0,0.2,0,0.4c0,0.1,0,0.2,0,0.3c0,0.3,0,0.5,0.1,0.7
				s0.2,0.4,0.3,0.5s0.3,0.2,0.4,0.3c0.2,0.1,0.3,0.1,0.5,0.1s0.5,0,0.7-0.1s0.4-0.2,0.6-0.4c0.2-0.2,0.3-0.4,0.4-0.7
				c0.1-0.3,0.2-0.6,0.3-1c0-0.1,0-0.2,0-0.4c0-0.1,0-0.2,0-0.3c0-0.3,0-0.5-0.1-0.7s-0.2-0.4-0.3-0.5s-0.3-0.2-0.4-0.3
				c-0.2-0.1-0.3-0.1-0.6-0.1c-0.2,0-0.4,0-0.7,0.1s-0.4,0.2-0.6,0.4c-0.2,0.2-0.3,0.4-0.4,0.7C190.8,45.4,190.7,45.7,190.7,46.1z"
				/>
			<path class="st0" d="M196.3,43.2h0.8l0,0l0,0l2.2,4.5l0.6-4.5h0.8l-0.8,5.8h-0.8l-2.2-4.5l-0.6,4.5h-0.8L196.3,43.2z"/>
			<path class="st0" d="M202.2,43.2h1.7c0.3,0,0.7,0.1,0.9,0.2c0.3,0.1,0.5,0.3,0.7,0.5s0.4,0.4,0.5,0.7s0.2,0.6,0.2,1
				c0,0.1,0,0.2,0,0.3s0,0.2,0,0.3c-0.1,0.4-0.2,0.8-0.4,1.2s-0.4,0.7-0.7,0.9c-0.3,0.3-0.6,0.4-0.9,0.6c-0.3,0.1-0.7,0.2-1.1,0.2
				h-1.7L202.2,43.2z M202.9,43.8l-0.7,4.5h0.8c0.3,0,0.5,0,0.8-0.1s0.5-0.2,0.7-0.4s0.4-0.4,0.5-0.7s0.2-0.6,0.3-1
				c0-0.1,0-0.2,0-0.3s0-0.2,0-0.3c0-0.3,0-0.6-0.1-0.8s-0.2-0.4-0.3-0.5s-0.3-0.2-0.5-0.3s-0.4-0.1-0.7-0.1
				C203.7,43.8,202.9,43.8,202.9,43.8z"/>
			<path class="st0" d="M207.2,46.1c0.1-0.5,0.2-0.9,0.4-1.3c0.2-0.4,0.4-0.7,0.6-0.9c0.3-0.3,0.5-0.4,0.8-0.6
				c0.3-0.1,0.6-0.2,1-0.2c0.3,0,0.6,0.1,0.8,0.2c0.3,0.1,0.5,0.3,0.6,0.5c0.2,0.2,0.3,0.4,0.4,0.7c0.1,0.3,0.1,0.6,0.1,1
				c0,0.1,0,0.2,0,0.3s0,0.2,0,0.3c-0.1,0.5-0.2,0.9-0.4,1.3c-0.2,0.4-0.4,0.7-0.6,0.9c-0.3,0.3-0.5,0.4-0.8,0.6
				c-0.3,0.1-0.6,0.2-1,0.2c-0.3,0-0.6-0.1-0.8-0.2c-0.2-0.1-0.5-0.3-0.6-0.5c-0.2-0.2-0.3-0.4-0.4-0.7c-0.1-0.3-0.1-0.6-0.1-1
				c0-0.1,0-0.2,0-0.3C207.1,46.3,207.2,46.2,207.2,46.1z M208,46.1c0,0.1,0,0.2,0,0.4c0,0.1,0,0.2,0,0.3c0,0.3,0,0.5,0.1,0.7
				s0.2,0.4,0.3,0.5s0.3,0.2,0.4,0.3c0.2,0.1,0.3,0.1,0.5,0.1s0.5,0,0.7-0.1s0.4-0.2,0.6-0.4c0.2-0.2,0.3-0.4,0.4-0.7
				c0.1-0.3,0.2-0.6,0.3-1c0-0.1,0-0.2,0-0.4c0-0.1,0-0.2,0-0.3c0-0.3,0-0.5-0.1-0.7s-0.2-0.4-0.3-0.5s-0.3-0.2-0.4-0.3
				c-0.2-0.1-0.3-0.1-0.6-0.1c-0.2,0-0.4,0-0.7,0.1c-0.2,0.1-0.4,0.2-0.6,0.4c-0.2,0.2-0.3,0.4-0.4,0.7
				C208.1,45.4,208,45.7,208,46.1z"/>
			<path class="st0" d="M216.4,47.5c0,0.2-0.1,0.5-0.2,0.7c-0.1,0.2-0.3,0.4-0.4,0.5c-0.2,0.1-0.4,0.2-0.6,0.3
				c-0.2,0.1-0.5,0.1-0.8,0.1c-0.2,0-0.3,0-0.5,0s-0.3,0-0.5-0.1c-0.2,0-0.3-0.1-0.4-0.1c-0.1,0-0.2-0.1-0.3-0.1l0.3-0.6
				c0.1,0,0.2,0.1,0.3,0.1s0.2,0.1,0.3,0.1s0.2,0.1,0.4,0.1c0.1,0,0.3,0,0.4,0c0.2,0,0.3,0,0.5-0.1c0.1,0,0.3-0.1,0.4-0.2
				c0.1-0.1,0.2-0.2,0.3-0.3s0.1-0.3,0.1-0.4c0-0.1,0-0.3,0-0.4c0-0.1-0.1-0.2-0.2-0.3s-0.2-0.2-0.4-0.2c-0.2-0.1-0.3-0.1-0.5-0.2
				c-0.2-0.1-0.4-0.1-0.5-0.2c-0.2-0.1-0.3-0.2-0.4-0.3c-0.1-0.1-0.2-0.3-0.3-0.4c-0.1-0.2-0.1-0.3-0.1-0.5v-0.1v-0.1
				c0-0.3,0.1-0.5,0.2-0.7c0.1-0.2,0.3-0.4,0.4-0.5c0.2-0.1,0.4-0.2,0.6-0.3c0.2-0.1,0.5-0.1,0.8-0.1c0.2,0,0.3,0,0.5,0
				s0.3,0.1,0.4,0.1c0.1,0,0.3,0.1,0.4,0.1c0.1,0,0.2,0.1,0.3,0.1l-0.2,0.6c-0.1,0-0.2-0.1-0.3-0.1s-0.2-0.1-0.3-0.1
				s-0.2-0.1-0.3-0.1s-0.3,0-0.4,0c-0.2,0-0.3,0-0.5,0.1c-0.1,0-0.3,0.1-0.4,0.2c-0.1,0.1-0.2,0.2-0.2,0.3c-0.1,0.1-0.1,0.2-0.1,0.4
				s0,0.4,0.2,0.6c0.2,0.2,0.4,0.3,0.8,0.5c0.2,0.1,0.5,0.2,0.7,0.3s0.3,0.2,0.5,0.3c0.1,0.1,0.2,0.3,0.3,0.4
				c0.1,0.1,0.1,0.3,0.1,0.5C216.4,47.4,216.4,47.4,216.4,47.5z"/>
		</g>
	</g>
</g>
</svg>
