<svg width="28" height="28" viewBox="0 0 28 28" fill="none" xmlns="http://www.w3.org/2000/svg">
<g clip-path="url(#clip0)">
<path d="M25.082 28H12.2487C10.641 28 9.33203 26.691 9.33203 25.0833V19.25C9.33203 18.928 9.59336 18.6667 9.91536 18.6667C10.2374 18.6667 10.4987 18.928 10.4987 19.25V25.0833C10.4987 26.0482 11.2839 26.8333 12.2487 26.8333H25.082C26.0469 26.8333 26.832 26.0482 26.832 25.0833V2.91666C26.832 1.95183 26.0469 1.16666 25.082 1.16666H12.2487C11.2839 1.16666 10.4987 1.95183 10.4987 2.91666V8.75C10.4987 9.072 10.2374 9.33333 9.91536 9.33333C9.59336 9.33333 9.33203 9.072 9.33203 8.75V2.91666C9.33203 1.309 10.641 -3.8147e-06 12.2487 -3.8147e-06H25.082C26.6897 -3.8147e-06 27.9987 1.309 27.9987 2.91666V25.0833C27.9987 26.691 26.6897 28 25.082 28Z" fill="#EC6300"/>
<path d="M18.0833 14.5833H0.583333C0.261333 14.5833 0 14.322 0 14C0 13.678 0.261333 13.4167 0.583333 13.4167H18.0833C18.4053 13.4167 18.6667 13.678 18.6667 14C18.6667 14.322 18.4053 14.5833 18.0833 14.5833Z" fill="#EC6300"/>
<path d="M13.4157 19.25C13.2663 19.25 13.117 19.1928 13.0027 19.0797C12.7752 18.8522 12.7752 18.4823 13.0027 18.2548L17.2575 14L13.0038 9.74634C12.7763 9.51884 12.7763 9.149 13.0038 8.9215C13.2313 8.694 13.6012 8.694 13.8287 8.9215L18.4953 13.5882C18.7228 13.8157 18.7228 14.1855 18.4953 14.413L13.8287 19.0797C13.7143 19.1928 13.565 19.25 13.4157 19.25Z" fill="#EC6300"/>
</g>
<defs>
<clipPath id="clip0">
<rect width="28" height="28" fill="white"/>
</clipPath>
</defs>
</svg>
