<svg width="76" height="89" viewBox="0 0 76 89" fill="none" xmlns="http://www.w3.org/2000/svg">
<g clip-path="url(#clip0)">
<path d="M75.253 72.333C74.2966 64.8081 71.106 57.7427 66.0934 52.0495C61.0807 46.3562 54.4763 42.2966 47.133 40.395C51.4546 38.2792 54.932 34.762 56.9986 30.4167C59.0652 26.0714 59.5991 21.1543 58.5132 16.4667C57.4273 11.7791 54.7856 7.59759 51.0188 4.60365C47.252 1.60971 42.5822 -0.0200806 37.7705 -0.0200806C32.9588 -0.0200806 28.289 1.60971 24.5222 4.60365C20.7554 7.59759 18.1137 11.7791 17.0278 16.4667C15.9419 21.1543 16.4757 26.0714 18.5424 30.4167C20.609 34.762 24.0864 38.2792 28.408 40.395C20.2807 42.4764 13.0774 47.2036 7.93378 53.8314C2.79016 60.4592 -0.00113773 68.6105 3.47878e-07 77H75.542C75.5418 75.4399 75.4453 73.8812 75.253 72.333ZM20.853 21.291C20.853 17.9451 21.8452 14.6744 23.704 11.8924C25.5629 9.11045 28.205 6.94215 31.2961 5.66174C34.3873 4.38134 37.7888 4.04632 41.0703 4.69907C44.3519 5.35181 47.3662 6.963 49.7321 9.32889C52.098 11.6948 53.7092 14.7091 54.3619 17.9907C55.0147 21.2723 54.6797 24.6737 53.3993 27.7649C52.1189 30.8561 49.9506 33.4981 47.1686 35.357C44.3866 37.2158 41.1159 38.208 37.77 38.208C33.2847 38.2046 28.984 36.4213 25.8124 33.2496C22.6408 30.078 20.8574 25.7774 20.854 21.292L20.853 21.291ZM4.5 77C6 64 9.80031 57.0817 15.8752 51.8094C21.9501 46.537 29.7237 43.6341 37.7675 43.6341C45.8113 43.6341 53.5849 46.537 59.6598 51.8094C65.7347 57.0817 70.5 64.5 71.5 77H4.5Z" fill="#2A3A47"/>
</g>
<path d="M8 83H68" stroke="#2A3946" stroke-width="3" stroke-linecap="round" stroke-linejoin="round"/>
<circle cx="20" cy="83" r="6" fill="#2A3946"/>
<defs>
<clipPath id="clip0">
<rect width="75.542" height="77" fill="white"/>
</clipPath>
</defs>
</svg>
